<svg xmlns="http://www.w3.org/2000/svg" viewBox="0 0 797.23 80.22"><g id="Layer_2" data-name="Layer 2"><g id="Layer_1-2" data-name="Layer 1"><path d="M40.87.9V79.33H31.79L7,14.57V79.33H0V.9H9.08L33.83,65.66V.9Z"/><path d="M79.58,0C94,0,103.76,13.11,103.76,40.11S94,80.22,79.58,80.22,55.4,67.12,55.4,40.11,65.16,0,79.58,0Zm0,6.72c-10,0-16.69,11.77-16.69,33.39S69.59,73.5,79.58,73.5,96.26,61.74,96.26,40.11,89.57,6.72,79.58,6.72Z"/><path d="M125.44,7.62H108.29V.9h41.55V7.62H132.7V79.33h-7.26Z"/><path d="M203.65.9V79.33h-7.26V41H168.23V79.33H161V.9h7.26V34.29h28.16V.9Z"/><path d="M221.81.9h7.27V79.33h-7.27Z"/><path d="M288.11.9V79.33H279L254.28,14.57V79.33h-7V.9h9.08l24.75,64.76V.9Z"/><path d="M329.2,39.78h19.07V79.33h-5.45L342,68.8c-2.39,7.28-8.06,11.42-15.78,11.42-14.53,0-23.62-14-23.62-40.11S313.53,0,327.38,0C340,0,347,8.29,348.84,23.08l-6.7,1.46c-1.47-11.77-6.58-17.82-14.76-17.82-10.33,0-17.25,12.22-17.25,33.39,0,21.51,6,33.39,16.91,33.39,9.2,0,14.19-9.07,14.19-25.1V46.5h-12Z"/><path d="M406.62,47V79.33h-7V47L382.44.9h7.49L403.1,37.54,416.27.9h7.49Z"/><path d="M452.71,0c14.41,0,24.18,13.11,24.18,40.11s-9.77,40.11-24.18,40.11-24.18-13.1-24.18-40.11S438.29,0,452.71,0Zm0,6.72c-10,0-16.69,11.77-16.69,33.39s6.7,33.39,16.69,33.39,16.68-11.76,16.68-33.39S462.7,6.72,452.71,6.72Z"/><path d="M491,.9h7.27V56c0,11.21,5.1,17.48,13.62,17.48S525.47,67.23,525.47,56V.9h7.27V55.8c0,15.69-8.06,24.42-20.89,24.42S491,71.49,491,55.8Z"/><path d="M640.12.9l-16,78.43h-7.38L604.36,23.19,592,79.33h-7.38L568.6.9H576L588.7,65.77,600.84,9.19h7L620,65.77,632.74.9Z"/><path d="M678.49,56.92H654.42l-6.35,22.41h-7.5L663.39.9h6.13l22.82,78.43h-7.49Zm-1.93-6.72-10.1-35.52L656.35,50.2Z"/><path d="M744.56.9V79.33h-9.08L710.73,14.57V79.33h-7V.9h9.08l24.75,64.76V.9Z"/><path d="M772.82,7.62H755.68V.9h41.55V7.62H780.09V79.33h-7.27Z"/></g></g></svg>