<svg id="Layer_1" data-name="Layer 1" xmlns="http://www.w3.org/2000/svg" width="17.96in" height="1.3in" viewBox="0 0 1293.11 93.6"><g id="Layer_2" data-name="Layer 2"><g id="Layer_1-2" data-name="Layer 1-2"><path d="M48.82,79.3V86H15.9V7.59H47.69v6.72H23.17V40.86h20v6.73h-20V79.3Z"/><path d="M56.42,7.59H64L80.49,72.46,97,7.59h7.61L84,86H77Z"/><path d="M148.83,79.3V86H115.9V7.59h31.78v6.72H123.17V40.86h20v6.73h-20V79.3Z"/><path d="M177.66,47.25h-7.95V86h-7.26V7.59h16c14.42,0,21.69,6.83,21.69,19.83,0,11.2-5.91,17.14-15,19.27L203,86h-7.83Zm-7.95-6.72h9.77c9,0,13.39-4.37,13.39-13.11s-4.43-13.11-13.39-13.11h-9.77Z"/><path d="M230.9,53.69V86h-7V53.69L206.72,7.59h7.49l13.17,36.64L240.55,7.59H248Z"/><path d="M273.58,14.31H256.44V7.59H298v6.72H280.84V86h-7.26Z"/><path d="M351.79,7.59V86h-7.26V47.69H316.37V86h-7.26V7.59h7.26V41h28.16V7.59Z"/><path d="M370,7.59h7.27V86H370Z"/><path d="M436.25,7.59V86h-9.08L402.42,21.26V86h-7V7.59h9.08l24.75,64.76V7.59Z"/><path d="M477.34,46.47h19.07V86H491l-.79-10.53c-2.38,7.28-8.06,11.42-15.78,11.42-14.53,0-23.61-14-23.61-40.11s10.9-40.11,24.75-40.11c12.6,0,19.64,8.29,21.45,23.08l-6.7,1.46c-1.47-11.77-6.58-17.82-14.75-17.82-10.34,0-17.26,12.22-17.26,33.39,0,21.51,6,33.39,16.92,33.39,9.19,0,14.19-9.07,14.19-25.1v-1.9h-12Z"/><path d="M554.76,53.69V86h-7V53.69L530.58,7.59h7.49l13.17,36.64L564.41,7.59h7.49Z"/><path d="M600.9,6.69c14.42,0,24.18,13.11,24.18,40.11s-9.81,40.11-24.18,40.11-24.18-13.1-24.18-40.11S586.43,6.69,600.9,6.69Zm0,6.72c-10,0-16.69,11.77-16.69,33.39s6.69,33.39,16.69,33.39,16.69-11.76,16.69-33.39S610.84,13.41,600.9,13.41Z"/><path d="M639.1,7.59h7.27v55.1c0,11.21,5.11,17.48,13.62,17.48s13.62-6.25,13.62-17.48V7.59h7.29v54.9c0,15.69-8.06,24.42-20.89,24.42S639.1,78.18,639.1,62.49Z"/><path d="M726.62,16.44c4.54-6.5,10.33-9.75,17.28-9.75,11.69,0,18.5,8,20.2,23.31l-6.69.89c-1.27-11.54-5.93-17.48-13.51-17.48-10.56,0-16.46,11.88-16.46,33.39,0,21.85,5.33,33.39,15.78,33.39,7.6,0,12.48-6.16,14.19-17l6.69,1.12c-2.2,14.38-9.55,22.6-20.9,22.6-14,0-23.28-12.32-23.28-40.11C719.9,33,722.19,22.82,726.62,16.44Z"/><path d="M808.24,63.61H784.17L777.82,86h-7.5L793.14,7.59h6.13L822.09,86H814.6Zm-1.93-6.72-10.1-35.52-10.1,35.52Z"/><path d="M874.31,7.59V86h-9.08L840.48,21.26V86h-7V7.59h9.08l24.75,64.76V7.59Z"/><path d="M927.54,14.31H910.4V7.59H952v6.72H934.81V86h-7.27Z"/><path d="M1005.76,7.59V86h-7.27V47.69H970.34V86h-7.27V7.59h7.27V41h28.15V7.59Z"/><path d="M1023.9,7.59h7.26V86h-7.26Z"/><path d="M1090.22,7.59V86h-9.09l-24.74-64.76V86h-7V7.59h9.08l24.75,64.76V7.59Z"/><path d="M1138.46,86l-22.82-41.57V86h-7.26V7.59h7.26V41.2l19.64-33.61h8.17l-20.66,35.18L1146.52,86Z"/><path d="M1202.48,6.69c14.42,0,24.18,13.11,24.18,40.11s-9.76,40.11-24.18,40.11-24.18-13.1-24.18-40.11S1188.06,6.69,1202.48,6.69Zm0,6.72c-10,0-16.69,11.77-16.69,33.39s6.7,33.39,16.69,33.39,16.69-11.76,16.69-33.39S1212.47,13.41,1202.48,13.41Z"/><path d="M1248.45,14.31V41.76h20.32v6.72h-20.32V86h-7.26V7.59h32.12v6.72Z"/></g></g></svg>