<svg xmlns="http://www.w3.org/2000/svg" viewBox="10 10 2093.39 80.22"><g id="Layer_2" data-name="Layer 2"><g id="Layer_1-2" data-name="Layer 1"><path d="M1337,.9V79.33H1328L1303.2,14.57V79.33h-7V.9h9.08L1330,65.66V.9Z"/><path d="M1375.73,0c14.42,0,24.19,13.11,24.19,40.11s-9.77,40.11-24.19,40.11-24.18-13.1-24.18-40.11S1361.32,0,1375.73,0Zm0,6.72c-10,0-16.68,11.77-16.68,33.39s6.69,33.39,16.68,33.39,16.69-11.76,16.69-33.39S1385.72,6.72,1375.73,6.72Z"/><path d="M1421.6,7.62h-17.15V.9H1446V7.62h-17.14V79.33h-7.26Z"/><path d="M1499.81.9V79.33h-7.27V41h-28.15V79.33h-7.27V.9h7.27V34.29h28.15V.9Z"/><path d="M1518,.9h7.27V79.33H1518Z"/><path d="M1584.27.9V79.33h-9.08l-24.75-64.76V79.33h-7V.9h9.08l24.75,64.76V.9Z"/><path d="M1625.36,39.78h19.07V79.33H1639l-.79-10.53c-2.39,7.28-8.06,11.42-15.78,11.42-14.53,0-23.62-14-23.62-40.11S1609.69,0,1623.54,0c12.6,0,19.64,8.29,21.46,23.08l-6.7,1.46c-1.48-11.77-6.58-17.82-14.76-17.82-10.33,0-17.25,12.22-17.25,33.39,0,21.51,6,33.39,16.91,33.39,9.2,0,14.19-9.07,14.19-25.1V46.5h-12Z"/><path d="M1702.77,47V79.33h-7V47L1678.59.9h7.5l13.17,36.64L1712.42.9h7.5Z"/><path d="M1748.86,0c14.42,0,24.19,13.11,24.19,40.11s-9.77,40.11-24.19,40.11-24.18-13.1-24.18-40.11S1734.45,0,1748.86,0Zm0,6.72c-10,0-16.68,11.77-16.68,33.39s6.69,33.39,16.68,33.39,16.69-11.76,16.69-33.39S1758.85,6.72,1748.86,6.72Z"/><path d="M1787.12.9h7.26V56c0,11.21,5.11,17.48,13.63,17.48s13.62-6.27,13.62-17.48V.9h7.27V55.8c0,15.69-8.07,24.42-20.89,24.42s-20.89-8.73-20.89-24.42Z"/><path d="M1936.28.9l-16,78.43h-7.37l-12.38-56.14-12.37,56.14h-7.38L1864.76.9h7.38l12.71,64.87L1897,9.19h7l12.15,56.58L1928.9.9Z"/><path d="M1974.65,56.92h-24.07l-6.36,22.41h-7.49L1959.55.9h6.13l22.82,78.43H1981Zm-1.93-6.72-10.11-35.52-10.1,35.52Z"/><path d="M2040.72.9V79.33h-9.09l-24.75-64.76V79.33h-7V.9h9.08l24.75,64.76V.9Z"/><path d="M2069,7.62h-17.14V.9h41.55V7.62h-17.15V79.33H2069Z"/><path d="M32.92,72.61v6.72H0V.9H31.79V7.62H7.27V34.17h20V40.9h-20V72.61Z"/><path d="M40.52.9h7.61L64.59,65.77,81.05.9h7.61L68.11,79.33h-7Z"/><path d="M132.93,72.61v6.72H100V.9h31.78V7.62H107.27V34.17h20V40.9h-20V72.61Z"/><path d="M161.76,40.56h-7.95V79.33h-7.26V.9h16c14.42,0,21.69,6.83,21.69,19.83,0,11.2-5.91,17.14-15,19.27l17.82,39.33h-7.83Zm-7.95-6.72h9.77c9,0,13.39-4.37,13.39-13.11S172.54,7.62,163.58,7.62h-9.77Z"/><path d="M215,47V79.33h-7V47L190.82.9h7.49l13.17,36.64L224.65.9h7.49Z"/><path d="M257.68,7.62H240.54V.9h41.55V7.62H264.94V79.33h-7.26Z"/><path d="M335.89.9V79.33h-7.26V41H300.47V79.33h-7.26V.9h7.26V34.29h28.16V.9Z"/><path d="M354.05.9h7.27V79.33h-7.27Z"/><path d="M420.35.9V79.33h-9.08L386.52,14.57V79.33h-7V.9h9.08l24.75,64.76V.9Z"/><path d="M461.44,39.78h19.07V79.33h-5.45l-.79-10.53c-2.38,7.28-8.06,11.42-15.78,11.42-14.53,0-23.61-14-23.61-40.11S445.78,0,459.63,0c12.6,0,19.64,8.29,21.45,23.08l-6.7,1.46c-1.47-11.77-6.58-17.82-14.75-17.82-10.34,0-17.26,12.22-17.26,33.39,0,21.51,6,33.39,16.92,33.39,9.19,0,14.19-9.07,14.19-25.1V46.5h-12Z"/><path d="M538.86,47V79.33h-7V47L514.68.9h7.49l13.17,36.64L548.51.9H556Z"/><path d="M585,0c14.42,0,24.18,13.11,24.18,40.11S599.37,80.22,585,80.22s-24.18-13.1-24.18-40.11S570.53,0,585,0Zm0,6.72c-10,0-16.69,11.77-16.69,33.39S575,73.5,585,73.5s16.69-11.76,16.69-33.39S594.94,6.72,585,6.72Z"/><path d="M623.2.9h7.27V56c0,11.21,5.11,17.48,13.62,17.48S657.71,67.23,657.71,56V.9H665V55.8c0,15.69-8.06,24.42-20.89,24.42S623.2,71.49,623.2,55.8Z"/><path d="M710.72,9.75C715.26,3.25,721.05,0,728,0c11.69,0,18.5,8,20.2,23.31l-6.69.89C740.24,12.66,735.58,6.72,728,6.72c-10.56,0-16.46,11.88-16.46,33.39,0,21.85,5.33,33.39,15.78,33.39,7.6,0,12.48-6.16,14.19-17l6.69,1.12C746,72,738.65,80.22,727.3,80.22c-14,0-23.28-12.32-23.28-40.11C704,26.33,706.29,16.13,710.72,9.75Z"/><path d="M792.34,56.92H768.27l-6.35,22.41h-7.5L777.24.9h6.13l22.82,78.43H798.7Zm-1.93-6.72-10.1-35.52L770.21,50.2Z"/><path d="M858.41.9V79.33h-9.08L824.58,14.57V79.33h-7V.9h9.08l24.75,64.76V.9Z"/><path d="M911.64,7.62H894.5V.9h41.55V7.62H918.91V79.33h-7.27Z"/><path d="M989.86.9V79.33h-7.27V41H954.44V79.33h-7.27V.9h7.27V34.29h28.15V.9Z"/><path d="M1008,.9h7.26V79.33H1008Z"/><path d="M1074.32.9V79.33h-9.09l-24.74-64.76V79.33h-7V.9h9.08l24.75,64.76V.9Z"/><path d="M1122.56,79.33l-22.82-41.57V79.33h-7.26V.9h7.26V34.51L1119.38.9h8.17l-20.66,35.18,23.73,43.25Z"/><path d="M1186.58,0c14.42,0,24.18,13.11,24.18,40.11s-9.76,40.11-24.18,40.11-24.18-13.1-24.18-40.11S1172.16,0,1186.58,0Zm0,6.72c-10,0-16.69,11.77-16.69,33.39s6.7,33.39,16.69,33.39,16.69-11.76,16.69-33.39S1196.57,6.72,1186.58,6.72Z"/><path d="M1232.55,7.62V35.07h20.32v6.72h-20.32V79.33h-7.26V.9h32.12V7.62Z"/></g></g></svg>