<svg id="Layer_1" data-name="Layer 1" xmlns="http://www.w3.org/2000/svg" width="11.46in" height="1.3in" viewBox="0 0 825.13 93.6"><g id="Layer_2" data-name="Layer 2"><g id="Layer_1-2" data-name="Layer 1-2"><path d="M59.78,7.59V86h-9L26,21.26V86H19V7.59h9.08L52.78,72.35V7.59Z"/><path d="M98.51,6.69c14.42,0,24.19,13.11,24.19,40.11s-9.77,40.11-24.19,40.11S74.33,73.81,74.33,46.8,84.1,6.69,98.51,6.69Zm0,6.72c-10,0-16.68,11.77-16.68,33.39s6.69,33.39,16.68,33.39S115.2,68.43,115.2,46.8,108.5,13.41,98.51,13.41Z"/><path d="M144.38,14.31H127.23V7.59h41.55v6.72H151.64V86h-7.26Z"/><path d="M222.59,7.59V86h-7.27V47.69H187.17V86H179.9V7.59h7.27V41h28.15V7.59Z"/><path d="M240.78,7.59h7.27V86h-7.27Z"/><path d="M307.05,7.59V86H298L273.22,21.26V86h-7V7.59h9.08l24.75,64.76V7.59Z"/><path d="M348.14,46.47h19.07V86h-5.43L361,75.49c-2.39,7.28-8.06,11.42-15.78,11.42-14.53,0-23.62-14-23.62-40.11S332.47,6.69,346.32,6.69c12.6,0,19.64,8.29,21.46,23.08l-6.7,1.46c-1.48-11.77-6.58-17.82-14.76-17.82-10.33,0-17.25,12.22-17.25,33.39,0,21.51,6,33.39,16.91,33.39,9.2,0,14.19-9.07,14.19-25.1v-1.9h-12Z"/><path d="M425.55,53.69V86h-7V53.69L401.37,7.59h7.5L422,44.23,435.2,7.59h7.5Z"/><path d="M471.64,6.69c14.42,0,24.19,13.11,24.19,40.11s-9.77,40.11-24.19,40.11-24.18-13.1-24.18-40.11S457.23,6.69,471.64,6.69Zm0,6.72c-10,0-16.68,11.77-16.68,33.39s6.69,33.39,16.68,33.39,16.69-11.76,16.69-33.39S481.63,13.41,471.64,13.41Z"/><path d="M509.9,7.59h7.26v55.1c0,11.21,5.11,17.48,13.63,17.48s13.62-6.27,13.62-17.48V7.59h7.27v54.9c0,15.69-8.07,24.42-20.89,24.42S509.9,78.18,509.9,62.49Z"/><path d="M659.06,7.59,643.06,86h-7.37L623.31,29.88,610.94,86h-7.38l-16-78.43h7.38l12.71,64.87,12.15-56.58h7l12.15,56.58L651.68,7.59Z"/><path d="M697.43,63.61H673.36L667,86h-7.49L682.33,7.59h6.13L711.28,86h-7.5Zm-1.93-6.72L685.39,21.37l-10.1,35.52Z"/><path d="M763.5,7.59V86h-9.09L729.66,21.26V86h-7V7.59h9.08l24.75,64.76V7.59Z"/><path d="M791.78,14.31H774.64V7.59h41.55v6.72H799V86h-7.26Z"/></g></g></svg>